<?xml version="1.0" encoding="UTF-8" standalone="no"?>
<!-- Created with Inkscape (http://www.inkscape.org/) -->

<svg
   xmlns:dc="http://purl.org/dc/elements/1.1/"
   xmlns:cc="http://creativecommons.org/ns#"
   xmlns:rdf="http://www.w3.org/1999/02/22-rdf-syntax-ns#"
   xmlns:svg="http://www.w3.org/2000/svg"
   xmlns="http://www.w3.org/2000/svg"
   xmlns:sodipodi="http://sodipodi.sourceforge.net/DTD/sodipodi-0.dtd"
   xmlns:inkscape="http://www.inkscape.org/namespaces/inkscape"
   width="60"
   height="70"
   id="svg2"
   version="1.1"
   inkscape:version="0.48.3.1 r9886"
   sodipodi:docname="New document 1">
  <defs
     id="defs4">
    <filter
       inkscape:collect="always"
       id="filter3771"
       x="-0.17012661"
       width="1.3402532"
       y="-0.1546605"
       height="1.309321">
      <feGaussianBlur
         inkscape:collect="always"
         stdDeviation="3.5443045"
         id="feGaussianBlur3773" />
    </filter>
  </defs>
  <sodipodi:namedview
     id="base"
     pagecolor="#ffffff"
     bordercolor="#666666"
     borderopacity="1.0"
     inkscape:pageopacity="0.0"
     inkscape:pageshadow="2"
     inkscape:zoom="1"
     inkscape:cx="-76.929378"
     inkscape:cy="121.981"
     inkscape:document-units="px"
     inkscape:current-layer="layer1"
     showgrid="false"
     inkscape:window-width="1916"
     inkscape:window-height="1161"
     inkscape:window-x="0"
     inkscape:window-y="18"
     inkscape:window-maximized="0">
    <inkscape:grid
       type="xygrid"
       id="grid2985"
       empspacing="5"
       visible="true"
       enabled="true"
       snapvisiblegridlinesonly="true" />
  </sodipodi:namedview>
  <metadata
     id="metadata7">
    <rdf:RDF>
      <cc:Work
         rdf:about="">
        <dc:format>image/svg+xml</dc:format>
        <dc:type
           rdf:resource="http://purl.org/dc/dcmitype/StillImage" />
        <dc:title></dc:title>
      </cc:Work>
    </rdf:RDF>
  </metadata>
  <g
     inkscape:label="Layer 1"
     inkscape:groupmode="layer"
     id="layer1"
     transform="translate(0,-982.36218)">
    <path
       style="fill:#f2f42b;fill-opacity:1;stroke:#a6a679;stroke-width:3;stroke-linecap:butt;stroke-linejoin:miter;stroke-miterlimit:4;stroke-opacity:1;stroke-dasharray:none"
       d="m 25,997.3622 c 0,-10.00002 10,-10.00002 10,-10.00002 0,0 5,0 10,0 10,0 10,10.00002 10,10.00002 0,0 0,30 0,35 0,10 -10,10 -10,10 0,0 -5,0 -10,0 -10,0 -10,-10 -10,-10 l 0,-10 -20,-10 20,-10 z"
       id="path2987"
       inkscape:connector-curvature="0"
       sodipodi:nodetypes="ccscscsccccc" />
    <path
       sodipodi:nodetypes="ccscscsccccc"
       inkscape:connector-curvature="0"
       id="path3757"
       d="m 25,997.3622 c 0,-10.00002 10,-10.00002 10,-10.00002 0,0 5,0 10,0 10,0 10,10.00002 10,10.00002 0,0 0,30 0,35 0,10 -10,10 -10,10 0,0 -5,0 -10,0 -10,0 -10,-10 -10,-10 l 0,-10 -20,-10 20,-10 z"
       style="fill:#f2f42b;fill-opacity:1;stroke:#000000;stroke-width:3;stroke-linecap:butt;stroke-linejoin:miter;stroke-miterlimit:4;stroke-opacity:1;stroke-dasharray:none;filter:url(#filter3771)" />
  </g>
</svg>
